<svg xmlns="http://www.w3.org/2000/svg" aria-hidden="true" style="position:absolute;width:0;height:0;overflow:hidden"><defs><symbol id="icon-logo-mobile" viewBox="0 0 34 32"><path fill="#f8d24e" d="M17.413 14.169c1.635-4.384-1.751-6.784-3.995-8.362-.429-.322-.858-.623-1.206-.899-.621-.518-1.079-1.201-1.318-1.969s-.251-1.587-.033-2.361a.45.45 0 0 0-.133-.457.47.47 0 0 0-.472-.094 7.584 7.584 0 0 0-2.081 1.225c-.598.456-1.083 1.041-1.417 1.711s-.508 1.406-.51 2.152c-.423.33-.797.716-1.111 1.149a4.178 4.178 0 0 0-.819 2.693c-.687.624-1.199 1.413-1.486 2.291s-.338 1.814-.149 2.717c-.273.163-.485.411-.602.704s-.134.617-.047.921c.087.304.272.571.527.761s.567.291.886.289h.03v2.493c0 .253.102.496.283.675s.427.279.683.279h.751L6.417 30.56c.025.233.137.449.314.605s.406.243.643.243h5.089c.237-.001.466-.087.644-.244s.29-.372.317-.605l1.223-10.473h.751c.256 0 .502-.1.683-.279s.283-.422.283-.675v-2.493h.03c.388 0 .76-.152 1.035-.423s.428-.639.428-1.022a1.409 1.409 0 0 0-.429-1.03l-.013.004zM6.399 6.214c.618 2.294 3.003 3.197 5.179 4.003a.473.473 0 0 0 .568-.059.458.458 0 0 0-.051-.71.477.477 0 0 0-.187-.079c-2.343-.878-4.552-1.696-4.72-4.041-.039-.645.083-1.289.356-1.875s.689-1.097 1.21-1.487a6.97 6.97 0 0 1 1.047-.712 5.411 5.411 0 0 0 0 .882c.05.672.236 1.327.547 1.927s.741 1.131 1.264 1.563c.356.301.798.611 1.287.941 1.128.801 2.411 1.696 3.226 2.909a4.49 4.49 0 0 1 .467 4.304h-1.896c-3.909 0-8.401-1.069-9.289-4.062-.176-.616-.175-1.268.004-1.883s.528-1.169 1.008-1.598l-.021-.021zm3.518 14.455 1.433 1.416-1.433 1.416-1.433-1.425 1.433-1.408zm3.287 3.719-1.184 1.17-1.433-1.416 1.433-1.412 1.244 1.225-.06.433zm-3.287 3.248L8.484 26.22l1.433-1.416 1.433 1.416-1.433 1.416zm-.656-3.486-1.433 1.416-1.193-1.179-.051-.424 1.244-1.225 1.433 1.412zm-2.094 2.069-.287.284-.073-.644.36.36zm-.15 1.451.811-.801 1.575 1.569a.72.72 0 0 0 .03.093H7.116l-.099-.861zm4.994-.802.811.801-.099.848h-2.381l1.669-1.649zm.944-.364-.287-.284.365-.36-.077.644zm.429-3.706-.716-.721.91-.899-.193 1.62zm-1.377-1.366-1.36-1.34h2.72l-1.36 1.34zm-4.184 0-1.36-1.34h2.72l-1.36 1.34zm4.634 9.057H7.373c-.008-.001-.015-.004-.02-.01s-.009-.012-.01-.02l-.12-1.018h5.389l-.116 1.018c-.001.008-.005.016-.011.021s-.014.008-.023.008h-.004zm3.934-14.773h-1.493a.48.48 0 0 0-.359.118.456.456 0 0 0-.113.529.456.456 0 0 0 .28.251c.062.02.127.028.192.021h.532v2.493c-.001.008-.005.016-.011.021s-.014.008-.023.008H4.425c-.008 0-.017-.003-.023-.008s-.01-.013-.011-.021v-2.493h8.5a.468.468 0 0 0 .423-.46.456.456 0 0 0-.122-.311.47.47 0 0 0-.301-.149H3.452a.536.536 0 0 1-.535-.311.518.518 0 0 1 .128-.6.537.537 0 0 1 .407-.135h.974a.468.468 0 0 0 .423-.46c0-.115-.043-.226-.122-.311s-.186-.138-.301-.149h-.858c-.123-.645-.103-1.309.059-1.946s.461-1.232.877-1.743c.3.924 1.073 2.188 3.003 3.193 1.815.937 4.218 1.416 7.139 1.416h1.716a.536.536 0 0 1 .535.311.518.518 0 0 1-.128.6.537.537 0 0 1-.407.135h.03zM19.817 27.915l-.343.527.007.004.337-.531zm3.697.178.629-.014-.016-.728-.718.122.105.62zm.043 1.935.16.608.48-.126-.011-.496-.629.014zm-4.852.092.141-.613-.004-.001-.137.614zm-2.395-1.069.407-.48-.001-.001-.406.48zm-.866-1.965.629.003v-.003h-.629zm.301-1.376-.564-.278v.001l.565.277zm1.929-1.646.223.588.002-.001-.225-.587zm6.178-.159.627.049.041-.531-.517-.128-.151.61zm-.154 1.971-.117.618.69.131.055-.7-.627-.049zm-1.676-.807c-.944 0-1.737.101-2.317.356a1.896 1.896 0 0 0-.764.574c-.203.268-.3.58-.3.909h1.258c0-.074.018-.115.044-.149.033-.043.106-.111.268-.182.338-.148.92-.249 1.81-.249V25.07zm-3.38 1.839c0 .647.29 1.181.832 1.534l.687-1.054a.51.51 0 0 1-.261-.48h-1.258zm.839 1.538c.514.325 1.191.448 1.952.448v-1.258c-.656 0-1.056-.111-1.279-.253l-.673 1.063zm1.951.448c.746 0 1.476-.06 2.187-.181l-.21-1.24c-.639.108-1.298.163-1.977.163v1.258zm1.453-.787.043 1.934 1.257-.028-.043-1.934-1.257.028zm.512 1.313a9.355 9.355 0 0 1-2.383.286v1.258c.964 0 1.866-.108 2.703-.328l-.32-1.216zm-2.382.286c-.888 0-1.607-.07-2.168-.199l-.282 1.226c.684.157 1.504.231 2.45.231v-1.258zm-2.172-.2c-.6-.134-1.034-.277-1.323-.418l-.552 1.13c.415.203.956.371 1.6.515l.275-1.227zm-1.323-.418a3.836 3.836 0 0 1-.803-.516l-.814.959c.314.267.67.495 1.064.687l.552-1.13zm-.804-.517c-.427-.361-.646-.833-.643-1.482l-1.258-.006c-.005.989.353 1.827 1.089 2.449l.812-.961zm-.643-1.485c0-.423.083-.785.237-1.099l-1.129-.553a3.718 3.718 0 0 0-.365 1.652h1.258zm.237-1.098c.286-.582.791-1.033 1.587-1.336l-.446-1.176c-1.038.394-1.819 1.04-2.27 1.956l1.129.555zm1.589-1.336c.837-.321 1.77-.486 2.808-.486v-1.258c-1.173 0-2.262.187-3.259.57l.451 1.174zm2.809-.487c1.059 0 2.056.118 2.993.35l.303-1.221a13.646 13.646 0 0 0-3.296-.387v1.258zm2.517-.309-.154 1.971 1.254.098.154-1.971-1.254-.098zm.591 1.402a9.734 9.734 0 0 0-1.794-.189v1.258c.442 0 .961.054 1.56.167l.234-1.236zm6.136 1.005-.003.629.639.004-.007-.639-.629.007zm-.271-.817-.428.461.005.005.422-.466zm-1.566.062.436.454.005-.005-.44-.449zm-.38.743-.62-.102-.119.727.736.004.003-.629zm4.624 3.353.38.501.226-.171.021-.283-.627-.047zm-1.357.504-.135-.614-.004.001.139.613zm-4.717-.172-.214.591.005.002.209-.593zm-1.074-.571-.39.493.008.006.383-.499zm-.719-.903-.564.279.001.003.563-.281zm.737-3.814.418.47-.419-.469zm5.748-.682.252-.576-.006-.003-.246.579zm1.444 1.327-.566.275.002.004.564-.278zm.245 1.099.627.046.002-.023v-.023h-.629zm-.073 1.013-.003.629.588.003.043-.586-.627-.046zm-4.981-.024.003-.629-.82-.004.209.793.608-.16zm.712.878-.309.547.003.001.307-.549zm3.82-.215v-.629h-.126l-.116.048.242.581zm.332 0 .627.047.051-.676h-.678v.629zm-1.895-1.788c-.005-.455-.109-.943-.477-1.276l-.845.932c-.007-.007.007.001.025.056.019.058.037.154.039.302l1.258-.013zm-.472-1.271c-.33-.306-.763-.408-1.189-.408v1.258c.245 0 .32.059.334.071l.856-.922zm-1.189-.407c-.468 0-.904.147-1.245.481l.88.898c.069-.067.169-.121.364-.121v-1.258zm-1.24.476c-.31.297-.496.671-.566 1.095l1.241.204a.66.66 0 0 1 .196-.391l-.871-.907zm.051 1.826 2.217.012.007-1.258-2.217-.012-.007 1.258zm4.248 2.223c-.138.105-.474.25-1.113.391l.27 1.228c.664-.146 1.232-.336 1.602-.617l-.76-1.002zm-1.116.391a7.95 7.95 0 0 1-1.759.206v1.258c.665 0 1.344-.08 2.037-.237l-.278-1.227zm-1.759.206c-.593 0-1.081-.028-1.47-.08l-.168 1.247c.462.062 1.01.092 1.638.092v-1.258zm-1.47-.081a5.637 5.637 0 0 1-1.14-.277l-.419 1.186c.457.161.921.274 1.391.337l.168-1.247zm-1.134-.274a3.328 3.328 0 0 1-.906-.479l-.765.998c.358.275.775.494 1.243.663l.429-1.182zm-.899-.474a2.003 2.003 0 0 1-.546-.691l-1.125.563c.221.443.517.819.891 1.115l.781-.986zm-.545-.688c-.132-.268-.211-.612-.211-1.054h-1.258c0 .59.105 1.134.342 1.611l1.127-.558zm-.212-1.054c0-.442.08-.833.231-1.181l-1.154-.501a4.184 4.184 0 0 0-.334 1.681h1.258zm.231-1.181c.159-.365.353-.636.572-.831l-.836-.939a3.601 3.601 0 0 0-.89 1.269l1.154.501zm.572-.831c.676-.603 1.707-.952 3.193-.952v-1.258c-1.667 0-3.043.392-4.03 1.271l.837.939zm3.193-.952a4.79 4.79 0 0 1 1.892.38l.491-1.158a6.05 6.05 0 0 0-2.383-.48v1.258zm1.886.378c.556.243.916.587 1.129 1.025l1.131-.55c-.36-.741-.963-1.281-1.757-1.628l-.503 1.153zm1.131 1.028c.117.238.181.508.181.821h1.258c0-.489-.101-.952-.311-1.378l-1.128.557zm.182.775-.074 1.013 1.254.091.074-1.013-1.254-.091zm.557.431-4.981-.025-.006 1.258 4.981.025.006-1.258zm-5.592.764c.147.558.507.98 1.011 1.265l.619-1.095c-.249-.141-.364-.303-.414-.491l-1.216.321zm1.013 1.267c.51.285 1.148.399 1.861.399v-1.258c-.597 0-.995-.099-1.247-.239l-.614 1.098zm1.861.399c.765 0 1.605-.207 2.508-.583l-.483-1.161c-.809.337-1.479.486-2.024.486v1.258zm2.266-.534h.332v-1.258h-.332v1.258zm-.295-.676-.117 1.56 1.254.094.117-1.56-1.254-.094z" style="fill:var(--color1, #f8d24e)"/></symbol><symbol id="icon-logo-desctop" viewBox="0 0 30 32"><path fill="#f8d24e" d="M15.226 17.082c1.415-3.784-1.515-5.856-3.457-7.217-.371-.278-.743-.538-1.043-.776-.537-.447-.933-1.037-1.141-1.699s-.217-1.37-.029-2.037a.394.394 0 0 0-.308-.491.407.407 0 0 0-.216.016 6.565 6.565 0 0 0-1.801 1.058c-.518.393-.937.898-1.226 1.476s-.44 1.213-.441 1.858c-.366.285-.69.618-.962.992a3.6 3.6 0 0 0-.709 2.324c-.595.538-1.038 1.22-1.286 1.977s-.292 1.566-.129 2.345a1.232 1.232 0 0 0-.106 2.06c.221.164.49.251.767.25h.026v2.152c0 .218.088.428.245.582s.369.241.591.241h.65l1.058 9.04c.022.201.119.387.272.523s.351.21.556.21h4.404c.206 0 .404-.075.557-.21s.251-.321.275-.522l1.058-9.04h.65c.222 0 .434-.087.591-.241s.245-.364.245-.582v-2.152h.026c.336 0 .658-.131.895-.366a1.242 1.242 0 0 0 0-1.773l-.011.004zm-9.531-6.866c.535 1.98 2.599 2.76 4.482 3.455a.41.41 0 0 0 .492-.051.403.403 0 0 0 .074-.483.401.401 0 0 0-.279-.197c-2.027-.758-3.939-1.464-4.084-3.488-.034-.556.072-1.112.308-1.619s.596-.947 1.047-1.284c.282-.232.586-.437.906-.615a4.604 4.604 0 0 0 0 .761c.043.58.204 1.146.473 1.663s.641.976 1.094 1.349c.308.26.691.527 1.114.813.976.692 2.087 1.464 2.792 2.511a3.859 3.859 0 0 1 .404 3.715h-1.641c-3.383 0-7.27-.922-8.039-3.506-.152-.532-.151-1.095.004-1.626s.457-1.009.873-1.379l-.019-.018zM8.74 22.693l1.24 1.222-1.24 1.222-1.24-1.23 1.24-1.215zm2.844 3.21-1.025 1.01-1.24-1.222 1.24-1.219 1.077 1.058-.052.373zM8.74 28.706 7.5 27.484l1.24-1.222 1.24 1.222-1.24 1.222zm-.568-3.008-1.24 1.222L5.9 25.903l-.045-.366 1.077-1.058 1.24 1.219zM6.36 27.484l-.249.245-.063-.556.312.311zm-.13 1.251.702-.692 1.363 1.354a.845.845 0 0 0 .026.081H6.316l-.085-.743zm4.322-.691.702.692-.085.732H9.108l1.444-1.424zm.817-.315-.249-.245.316-.311-.067.556zm.371-3.199-.62-.622.787-.776-.167 1.398zm-1.192-1.178-1.177-1.157h2.354l-1.177 1.157zm-3.62 0-1.177-1.157h2.354l-1.177 1.157zm4.01 7.817h-4.4c-.007-.001-.013-.004-.018-.008s-.008-.011-.008-.017l-.104-.878h4.663l-.1.878c-.001.007-.004.014-.01.018s-.012.007-.02.007h-.004zm3.405-12.751h-1.292a.406.406 0 0 0-.444.397c0 .056.012.111.035.161s.056.096.098.134a.403.403 0 0 0 .311.102h.46v2.152c-.001.007-.004.014-.01.018s-.012.007-.02.007H3.987c-.007 0-.014-.003-.02-.007s-.009-.011-.01-.018v-2.152h7.355a.404.404 0 0 0 .366-.397.393.393 0 0 0-.105-.268.413.413 0 0 0-.261-.129H3.144a.46.46 0 0 1-.501-.452.446.446 0 0 1 .15-.335.454.454 0 0 1 .351-.117h.843a.404.404 0 0 0 .366-.397.393.393 0 0 0-.105-.268.413.413 0 0 0-.261-.129h-.743a3.873 3.873 0 0 1 .81-3.185c.26.798.928 1.889 2.599 2.756 1.571.809 3.65 1.222 6.178 1.222h1.485a.46.46 0 0 1 .501.452.446.446 0 0 1-.15.335.454.454 0 0 1-.351.117h.026z" style="fill:var(--color1, #f8d24e)"/><path fill="#f8d24e" d="m16.964 29.152-.292.449.006.004.287-.453zm3.149.151.535-.012-.014-.62-.611.104.09.528zm.037 1.648.136.518.409-.108-.009-.422-.535.012zm-4.133.079.12-.522-.003-.001-.117.523zm-2.04-.911.347-.408-.001-.001-.346.409zm-.737-1.673.536.003v-.003h-.536zm.256-1.172-.481-.236v.001l.481.236zm1.643-1.402.19.501.002-.001-.192-.5zm5.262-.136.534.042.035-.452-.44-.109-.129.52zm-.131 1.679-.1.526.587.111.046-.596-.534-.042zm-1.428-.687c-.804 0-1.48.086-1.973.303a1.616 1.616 0 0 0-.651.489 1.26 1.26 0 0 0-.255.774h1.071c0-.063.015-.098.038-.127a.554.554 0 0 1 .228-.155c.288-.126.784-.212 1.542-.212v-1.071zm-2.879 1.566c0 .551.247 1.006.709 1.307l.585-.897a.435.435 0 0 1-.222-.409h-1.071zm.715 1.31c.438.277 1.015.381 1.662.381v-1.071c-.559 0-.899-.095-1.089-.215l-.573.905zm1.662.382a11.1 11.1 0 0 0 1.863-.154l-.179-1.056c-.545.092-1.106.139-1.684.139v1.071zm1.238-.671.037 1.648 1.071-.024-.037-1.648-1.071.024zm.435 1.118a7.964 7.964 0 0 1-2.029.244v1.071c.821 0 1.589-.092 2.302-.279l-.273-1.036zm-2.029.244c-.757 0-1.369-.059-1.847-.169l-.24 1.044c.582.134 1.281.197 2.087.197v-1.071zm-1.85-.17c-.511-.114-.88-.236-1.127-.356l-.47.963c.354.173.814.316 1.363.439l.234-1.045zm-1.126-.356a3.258 3.258 0 0 1-.684-.44l-.693.817c.267.227.571.421.907.585l.47-.963zm-.685-.441c-.364-.308-.55-.709-.548-1.262l-1.071-.005c-.004.842.301 1.556.927 2.086l.691-.818zm-.547-1.264c0-.36.071-.669.202-.936l-.962-.471c-.211.43-.311.903-.311 1.407h1.071zm.201-.936c.244-.495.674-.88 1.352-1.137l-.38-1.002c-.884.336-1.549.885-1.933 1.666l.961.473zm1.354-1.138c.713-.274 1.508-.414 2.392-.414v-1.071c-.999 0-1.926.159-2.776.485l.384 1zm2.392-.414c.902 0 1.751.1 2.549.298l.258-1.04a11.605 11.605 0 0 0-2.807-.33v1.071zm2.144-.263-.131 1.679 1.068.083.131-1.679-1.068-.083zm.503 1.194a8.256 8.256 0 0 0-1.528-.161v1.071c.377 0 .818.046 1.328.142l.2-1.052zm5.226.856-.003.536.544.003-.006-.544-.536.006zm-.23-.696-.364.393.005.004.36-.397zm-1.334.052.371.386.004-.004-.375-.383zm-.324.633-.529-.087-.102.619.627.003.003-.536zm3.938 2.856.324.427.193-.146.018-.241-.534-.04zm-1.156.429-.115-.523-.003.001.118.522zm-4.017-.146-.183.504.004.002.178-.505zm-.915-.487-.332.42.003.003.003.003.326-.425zm-.612-.769-.48.237.001.002.479-.24zm.627-3.248.356.4-.356-.4zm4.896-.581.214-.491-.005-.002-.209.493zm1.23 1.13-.482.234.001.003.48-.237zm.209.937.534.039.001-.019v-.019h-.536zm-.063.863-.003.536.501.002.036-.499-.534-.039zm-4.242-.021.003-.536-.699-.003.178.676.518-.137zm.607.748-.264.466.002.001.261-.468zm3.253-.183v-.536h-.107l-.099.041.206.494zm.283 0 .534.04.043-.576h-.577v.536zm-1.615-1.523c-.004-.387-.093-.803-.406-1.087l-.72.794c-.006-.006.006.001.021.047a.87.87 0 0 1 .033.257l1.071-.011zm-.401-1.082c-.281-.261-.65-.347-1.013-.347v1.071c.209 0 .272.05.284.061l.729-.785zm-1.013-.348c-.399 0-.77.125-1.06.409l.75.765c.058-.057.144-.103.31-.103v-1.071zm-1.056.406a1.63 1.63 0 0 0-.482.932l1.057.174a.558.558 0 0 1 .167-.333l-.742-.773zm.044 1.555 1.888.011.006-1.071-1.888-.011-.006 1.071zm3.618 1.893c-.117.089-.404.213-.948.333l.23 1.046c.565-.124 1.049-.286 1.364-.525l-.647-.854zm-.951.334a6.805 6.805 0 0 1-1.498.175v1.071c.566 0 1.145-.068 1.735-.201l-.237-1.045zm-1.498.175c-.505 0-.92-.024-1.252-.068l-.143 1.062c.394.053.86.078 1.395.078v-1.071zm-1.252-.069a4.855 4.855 0 0 1-.971-.236l-.357 1.01c.389.137.784.233 1.184.287l.143-1.062zm-.966-.234a2.862 2.862 0 0 1-.772-.408l-.652.85c.305.234.66.421 1.059.565l.365-1.007zm-.766-.403a1.708 1.708 0 0 1-.465-.588l-.958.479c.189.377.44.697.759.949l.665-.84zm-.464-.586c-.113-.228-.18-.521-.18-.898h-1.071c0 .502.09.966.291 1.372l.96-.475zm-.18-.898c0-.377.068-.71.196-1.006l-.983-.427a3.57 3.57 0 0 0-.285 1.432h1.071zm.196-1.005c.135-.311.3-.541.487-.708l-.712-.8a3.056 3.056 0 0 0-.758 1.081l.983.427zm.488-.708c.576-.513 1.454-.811 2.719-.811v-1.071c-1.42 0-2.592.334-3.432 1.083l.713.8zm2.719-.811c.568 0 1.103.108 1.611.324l.418-.986a5.144 5.144 0 0 0-2.029-.409v1.071zm1.606.321c.474.207.78.5.962.873l.963-.468c-.307-.631-.82-1.091-1.497-1.387l-.428.982zm.963.876c.1.203.154.433.154.699h1.071c0-.417-.086-.811-.265-1.173l-.96.474zm.156.661-.063.863 1.068.078.063-.863-1.068-.078zm.474.366-4.242-.021-.005 1.071 4.242.021.005-1.071zm-4.763.651c.125.475.431.835.861 1.078l.527-.933c-.212-.12-.31-.258-.352-.418l-1.036.273zm.863 1.079c.434.243.978.34 1.585.34v-1.071c-.509 0-.848-.084-1.062-.204l-.523.935zm1.585.34c.651 0 1.367-.176 2.136-.496l-.412-.989c-.689.287-1.26.414-1.724.414v1.071zm1.93-.455h.282v-1.071h-.282v1.071zm-.251-.575-.099 1.329 1.068.08.099-1.329-1.068-.08z" style="fill:var(--color1, #f8d24e)"/></symbol></defs></svg>